<svg xmlns="http://www.w3.org/2000/svg" width="1060" height="2080" viewBox="0 0 1060 2080" font-family="'Segoe UI','Noto Sans KR',sans-serif">
  <defs>
    <style>
      .ttl   { font-size:20px; font-weight:700; fill:#ffffff; }
      .sub   { font-size:11px; fill:#a1a1aa; }
      .sec   { font-size:10px; font-weight:700; fill:#71717a; letter-spacing:.08em; }
      .cname { font-size:13px; font-weight:700; fill:#3f3f46; }
      .cfile { font-size:10px; fill:#a1a1aa; }
      .cdesc { font-size:11px; fill:#71717a; }
      .pk    { font-size:10px; fill:#3f3f46; font-family:'Consolas','Courier New',monospace; }
      .pv    { font-size:10px; fill:#7c3aed; font-family:'Consolas','Courier New',monospace; }
      .dv    { stroke:#f4f4f5; stroke-width:1; }
      .bg    { fill:#fafafa; }
      .hd    { fill:#18181b; }
      .cb    { fill:#ffffff; stroke:#e4e4e7; stroke-width:1.5; }
      .ch    { fill:#f4f4f5; }
      .nb    { fill:#f0507a; }
      .nbt   { font-size:8px; fill:white; font-weight:700; }
      .ob    { fill:#e4e4e7; }
      .obt   { font-size:8px; fill:#71717a; font-weight:600; }
    </style>
  </defs>

  <!-- BG -->
  <rect width="1060" height="2080" class="bg"/>
  <!-- Header -->
  <rect x="0" y="0" width="1060" height="64" class="hd"/>
  <text x="32" y="38" class="ttl">Stock Dashboard — 컴포넌트 카탈로그</text>
  <text x="32" y="55" class="sub">components/ · utils/ · constants/  ·  2026-04-14 업데이트</text>
  <text x="900" y="38" font-size="11" fill="#a1a1aa">NEW = 이번 세션 추가</text>
  <rect x="900" y="43" width="24" height="14" rx="3" fill="#f0507a"/>
  <text x="929" y="54" font-size="10" fill="#a1a1aa">신규</text>
  <rect x="950" y="43" width="24" height="14" rx="3" fill="#e4e4e7"/>
  <text x="979" y="54" font-size="10" fill="#a1a1aa">기존</text>

  <!-- ═══════════════════════════ A. 레이아웃 ═══════════════════════════ -->
  <text x="32" y="94" class="sec">A. 레이아웃 · 컨테이너</text>

  <!-- CollapsibleCard -->
  <rect x="32"  y="104" width="310" height="148" rx="10" class="cb"/>
  <rect x="32"  y="104" width="310" height="36"  rx="10" class="ch"/>
  <rect x="32"  y="128" width="310" height="12"  class="ch"/>
  <text x="48"  y="127" class="cname">CollapsibleCard</text>
  <rect x="304" y="107" width="28" height="14" rx="3" class="ob"/><text x="309" y="117" class="obt">기존</text>
  <text x="48"  y="155" class="cfile">components/CollapsibleCard.tsx</text>
  <line x1="48" y1="162" x2="326" y2="162" class="dv"/>
  <text x="48" y="175" class="cdesc">헤더 클릭으로 접고 펼 수 있는 카드.</text>
  <text x="48" y="188" class="cdesc">열림/닫힘 상태를 localStorage에 자동 저장.</text>
  <text x="48" y="203" class="pk">id</text><text x="64" y="203" class="pv">string</text>
  <text x="48" y="216" class="pk">title  icon?  subtitle?  right?</text>
  <text x="48" y="229" class="pk">defaultOpen?  contentClassName?  dragHandle?</text>

  <!-- SCard -->
  <rect x="358" y="104" width="310" height="148" rx="10" class="cb"/>
  <rect x="358" y="104" width="310" height="36"  rx="10" class="ch"/>
  <rect x="358" y="128" width="310" height="12"  class="ch"/>
  <text x="374" y="127" class="cname">SCard</text>
  <rect x="622" y="107" width="24" height="14" rx="3" class="nb"/><text x="626" y="117" class="nbt">NEW</text>
  <text x="374" y="155" class="cfile">components/SCard.tsx</text>
  <line x1="374" y1="162" x2="652" y2="162" class="dv"/>
  <text x="374" y="175" class="cdesc">홈 화면 경량 카드. 헤더 아이콘+제목+우측슬롯.</text>
  <text x="374" y="188" class="cdesc">onClick 있으면 Chevron 표시.</text>
  <text x="374" y="203" class="pk">icon  title  children</text>
  <text x="374" y="216" class="pk">right?  onClick?  dragHandle?</text>

  <!-- PageHeader -->
  <rect x="684" y="104" width="344" height="148" rx="10" class="cb"/>
  <rect x="684" y="104" width="344" height="36"  rx="10" class="ch"/>
  <rect x="684" y="128" width="344" height="12"  class="ch"/>
  <text x="700" y="127" class="cname">PageHeader</text>
  <rect x="982" y="107" width="24" height="14" rx="3" class="nb"/><text x="986" y="117" class="nbt">NEW</text>
  <text x="700" y="155" class="cfile">components/PageHeader.tsx</text>
  <line x1="700" y1="162" x2="1012" y2="162" class="dv"/>
  <text x="700" y="175" class="cdesc">페이지 상단 제목 영역.</text>
  <text x="700" y="188" class="cdesc">좌측: 제목+부제  /  우측: 버튼 슬롯.</text>
  <text x="700" y="203" class="pk">title  subtitle?  action?</text>
  <!-- preview -->
  <rect x="700" y="213" width="312" height="32" rx="5" fill="#f9f9f9" stroke="#e4e4e7" stroke-width="1"/>
  <text x="712" y="226" font-size="11" font-weight="700" fill="#3f3f46">포트폴리오 분석</text>
  <text x="712" y="238" font-size="9" fill="#a1a1aa">수익률 히스토리 및 섹터 분석</text>
  <rect x="958" y="218" width="46" height="20" rx="4" fill="#f4f4f5" stroke="#e4e4e7" stroke-width="1"/>
  <text x="975" y="231" font-size="9" fill="#71717a" text-anchor="middle">버튼</text>

  <!-- ═══════════════════════════ B. 데이터 표시 ═══════════════════════════ -->
  <text x="32" y="282" class="sec">B. 데이터 표시</text>

  <!-- StatCard -->
  <rect x="32"  y="292" width="230" height="170" rx="10" class="cb"/>
  <rect x="32"  y="292" width="230" height="36"  rx="10" class="ch"/>
  <rect x="32"  y="316" width="230" height="12"  class="ch"/>
  <text x="48"  y="315" class="cname">StatCard</text>
  <rect x="224" y="295" width="24" height="14" rx="3" class="nb"/><text x="228" y="305" class="nbt">NEW</text>
  <text x="48"  y="343" class="cfile">components/StatCard.tsx</text>
  <line x1="48" y1="350" x2="246" y2="350" class="dv"/>
  <text x="48" y="363" class="cdesc">통계 수치 카드. 로딩=Skeleton.</text>
  <text x="48" y="378" class="pk">label  value?  colorClass?  loading?</text>
  <rect x="48" y="390" width="196" height="58" rx="6" fill="#f9f9f9" stroke="#e4e4e7" stroke-width="1"/>
  <text x="58" y="406" font-size="8" fill="#a1a1aa">MDD</text>
  <text x="58" y="436" font-size="20" font-weight="700" fill="#3b82f6">-3.42%</text>

  <!-- PnlText -->
  <rect x="278" y="292" width="230" height="170" rx="10" class="cb"/>
  <rect x="278" y="292" width="230" height="36"  rx="10" class="ch"/>
  <rect x="278" y="316" width="230" height="12"  class="ch"/>
  <text x="294" y="315" class="cname">PnlText</text>
  <rect x="470" y="295" width="24" height="14" rx="3" class="nb"/><text x="474" y="305" class="nbt">NEW</text>
  <text x="294" y="343" class="cfile">components/PnlText.tsx</text>
  <line x1="294" y1="350" x2="492" y2="350" class="dv"/>
  <text x="294" y="363" class="cdesc">손익 텍스트. 양수=빨강, 음수=파랑.</text>
  <text x="294" y="378" class="pk">value  pct?  size?('sm'|'base'|'lg')</text>
  <rect x="294" y="390" width="196" height="58" rx="6" fill="#f9f9f9" stroke="#e4e4e7" stroke-width="1"/>
  <text x="304" y="412" font-size="12" font-weight="600" fill="#f0507a">+1,250,000원</text>
  <text x="304" y="432" font-size="9" fill="#f0507a">(+12.50%)</text>

  <!-- EmptyState -->
  <rect x="524" y="292" width="230" height="170" rx="10" class="cb"/>
  <rect x="524" y="292" width="230" height="36"  rx="10" class="ch"/>
  <rect x="524" y="316" width="230" height="12"  class="ch"/>
  <text x="540" y="315" class="cname">EmptyState</text>
  <rect x="716" y="295" width="24" height="14" rx="3" class="nb"/><text x="720" y="305" class="nbt">NEW</text>
  <text x="540" y="343" class="cfile">components/EmptyState.tsx</text>
  <line x1="540" y1="350" x2="738" y2="350" class="dv"/>
  <text x="540" y="363" class="cdesc">데이터 없을 때 안내 메시지.</text>
  <text x="540" y="378" class="pk">message  hint?  className?</text>
  <rect x="540" y="390" width="196" height="58" rx="6" fill="#f9f9f9" stroke="#e4e4e7" stroke-width="1"/>
  <text x="638" y="418" text-anchor="middle" font-size="10" fill="#a1a1aa">추천 데이터가 없습니다.</text>
  <text x="638" y="434" text-anchor="middle" font-size="9" fill="#d4d4d8">재계산 버튼을 눌러보세요</text>

  <!-- Skeleton -->
  <rect x="770" y="292" width="258" height="170" rx="10" class="cb"/>
  <rect x="770" y="292" width="258" height="36"  rx="10" class="ch"/>
  <rect x="770" y="316" width="258" height="12"  class="ch"/>
  <text x="786" y="315" class="cname">Skeleton / SkeletonRow</text>
  <rect x="990" y="295" width="28" height="14" rx="3" class="ob"/><text x="995" y="305" class="obt">기존</text>
  <text x="786" y="343" class="cfile">components/Skeleton.tsx</text>
  <line x1="786" y1="350" x2="1012" y2="350" class="dv"/>
  <text x="786" y="363" class="cdesc">로딩 회색 블록. SkeletonRow=테이블 행.</text>
  <text x="786" y="378" class="pk">className?  lines?  /  cols?</text>
  <rect x="786" y="392" width="200" height="10" rx="3" fill="#e4e4e7" opacity=".7"/>
  <rect x="786" y="407" width="160" height="10" rx="3" fill="#e4e4e7" opacity=".7"/>
  <rect x="786" y="422" width="130" height="10" rx="3" fill="#e4e4e7" opacity=".7"/>
  <rect x="786" y="437" width="100" height="10" rx="3" fill="#e4e4e7" opacity=".7"/>

  <!-- ═══════════════════════════ C. 차트 ═══════════════════════════ -->
  <text x="32" y="494" class="sec">C. 차트 · 데이터 시각화</text>

  <!-- SectorDonut -->
  <rect x="32"  y="504" width="230" height="190" rx="10" class="cb"/>
  <rect x="32"  y="504" width="230" height="36"  rx="10" class="ch"/>
  <rect x="32"  y="528" width="230" height="12"  class="ch"/>
  <text x="48"  y="527" class="cname">SectorDonut</text>
  <rect x="224" y="507" width="24" height="14" rx="3" class="nb"/><text x="228" y="517" class="nbt">NEW</text>
  <text x="48"  y="555" class="cfile">components/SectorDonut.tsx</text>
  <line x1="48" y1="562" x2="246" y2="562" class="dv"/>
  <text x="48" y="575" class="cdesc">섹터 비중 도넛 차트+범례.</text>
  <text x="48" y="590" class="pk">sectors  loading?  emptyMessage?</text>
  <circle cx="140" cy="642" r="28" fill="none" stroke="#e4e4e7" stroke-width="8"/>
  <circle cx="140" cy="642" r="28" fill="none" stroke="#1a9eff" stroke-width="8" stroke-dasharray="60 116" stroke-dashoffset="-87"/>
  <circle cx="140" cy="642" r="28" fill="none" stroke="#f0507a" stroke-width="8" stroke-dasharray="40 136" stroke-dashoffset="-27"/>
  <circle cx="140" cy="642" r="28" fill="none" stroke="#a78bfa" stroke-width="8" stroke-dasharray="30 146" stroke-dashoffset="13"/>
  <text x="140" y="646" text-anchor="middle" font-size="9" fill="#a1a1aa">비중</text>
  <text x="48" y="676" class="cfile" fill="#a1a1aa">● 반도체  ● 금융  ● 바이오</text>

  <!-- SectorBar -->
  <rect x="278" y="504" width="230" height="190" rx="10" class="cb"/>
  <rect x="278" y="504" width="230" height="36"  rx="10" class="ch"/>
  <rect x="278" y="528" width="230" height="12"  class="ch"/>
  <text x="294" y="527" class="cname">SectorBar</text>
  <rect x="470" y="507" width="24" height="14" rx="3" class="nb"/><text x="474" y="517" class="nbt">NEW</text>
  <text x="294" y="555" class="cfile">components/SectorBar.tsx</text>
  <line x1="294" y1="562" x2="492" y2="562" class="dv"/>
  <text x="294" y="575" class="cdesc">섹터 집중도 가로 바 목록.</text>
  <text x="294" y="588" class="cdesc">40% 초과 시 amber 경고색.</text>
  <text x="294" y="603" class="pk">items: SectorWeight[]  loading?</text>
  <text x="294" y="622" font-size="9" fill="#71717a">반도체/IT</text>
  <rect x="378" y="613" width="100" height="9" rx="2" fill="#e4e4e7"/>
  <rect x="378" y="613" width="70" height="9" rx="2" fill="#1a9eff"/>
  <text x="482" y="622" font-size="9" fill="#71717a">70%</text>
  <text x="294" y="640" font-size="9" fill="#71717a">금융</text>
  <rect x="378" y="631" width="100" height="9" rx="2" fill="#e4e4e7"/>
  <rect x="378" y="631" width="30" height="9" rx="2" fill="#a78bfa"/>
  <text x="482" y="640" font-size="9" fill="#71717a">30%</text>
  <text x="294" y="658" font-size="9" fill="#f59e0b">에너지</text>
  <rect x="378" y="649" width="100" height="9" rx="2" fill="#e4e4e7"/>
  <rect x="378" y="649" width="42" height="9" rx="2" fill="#f59e0b"/>
  <text x="482" y="658" font-size="9" fill="#f59e0b" font-weight="700">42% ⚠</text>

  <!-- PortfolioHistoryChart -->
  <rect x="524" y="504" width="230" height="190" rx="10" class="cb"/>
  <rect x="524" y="504" width="230" height="36"  rx="10" class="ch"/>
  <rect x="524" y="528" width="230" height="12"  class="ch"/>
  <text x="540" y="527" class="cname">PortfolioHistoryChart</text>
  <rect x="716" y="507" width="24" height="14" rx="3" class="nb"/><text x="720" y="517" class="nbt">NEW</text>
  <text x="540" y="555" class="cfile">components/PortfolioHistoryChart.tsx</text>
  <line x1="540" y1="562" x2="738" y2="562" class="dv"/>
  <text x="540" y="575" class="cdesc">수익률 Area+일별 Bar ComposedChart.</text>
  <text x="540" y="588" class="cdesc">기간 선택(7일~1년) 내장.</text>
  <text x="540" y="601" class="pk">accountNo?  todayPnlPct?</text>
  <rect x="540" y="615" width="206" height="64" rx="4" fill="#f9f9f9" stroke="#e4e4e7" stroke-width="1"/>
  <polyline points="548,672 572,658 596,663 620,645 644,651 668,638 692,644 716,633 738,638" fill="none" stroke="#f0507a" stroke-width="1.5"/>
  <rect x="556" y="667" width="6" height="8" fill="#f0507a" opacity=".5"/>
  <rect x="576" y="670" width="6" height="5" fill="#3b82f6" opacity=".5"/>
  <rect x="596" y="668" width="6" height="7" fill="#f0507a" opacity=".5"/>
  <line x1="540" y1="662" x2="746" y2="662" stroke="#e4e4e7" stroke-width="1" stroke-dasharray="3,2"/>

  <!-- StockChart -->
  <rect x="770" y="504" width="258" height="190" rx="10" class="cb"/>
  <rect x="770" y="504" width="258" height="36"  rx="10" class="ch"/>
  <rect x="770" y="528" width="258" height="12"  class="ch"/>
  <text x="786" y="527" class="cname">StockChart</text>
  <rect x="990" y="507" width="28" height="14" rx="3" class="ob"/><text x="995" y="517" class="obt">기존</text>
  <text x="786" y="555" class="cfile">components/StockChart.tsx</text>
  <line x1="786" y1="562" x2="1012" y2="562" class="dv"/>
  <text x="786" y="575" class="cdesc">lightweight-charts 캔들/라인 차트.</text>
  <text x="786" y="588" class="cdesc">기간 선택(1일~1년) 내장.</text>
  <text x="786" y="601" class="pk">data: ChartPoint[]  avgPrice?  period?</text>
  <rect x="786" y="614" width="206" height="64" rx="4" fill="#f9f9f9" stroke="#e4e4e7" stroke-width="1"/>
  <polyline points="794,670 818,652 842,660 866,640 890,648 914,635 938,642 962,628 984,635" fill="none" stroke="#f0507a" stroke-width="1.5"/>

  <!-- Sparkline -->
  <rect x="32"  y="714" width="230" height="130" rx="10" class="cb"/>
  <rect x="32"  y="714" width="230" height="36"  rx="10" class="ch"/>
  <rect x="32"  y="738" width="230" height="12"  class="ch"/>
  <text x="48"  y="737" class="cname">Sparkline</text>
  <rect x="224" y="717" width="24" height="14" rx="3" class="nb"/><text x="228" y="727" class="nbt">NEW</text>
  <text x="48"  y="765" class="cfile">components/Sparkline.tsx</text>
  <line x1="48" y1="772" x2="246" y2="772" class="dv"/>
  <text x="48" y="785" class="cdesc">소형 SVG 스파크라인.</text>
  <text x="48" y="798" class="pk">data: number[]</text>
  <svg x="48" y="808" width="60" height="24" viewBox="0 0 60 24">
    <polyline fill="none" stroke="#f0507a" stroke-width="1.5" points="0,20 12,14 24,17 36,8 48,11 60,4"/>
  </svg>
  <svg x="122" y="808" width="60" height="24" viewBox="0 0 60 24">
    <polyline fill="none" stroke="#3b82f6" stroke-width="1.5" points="0,4 12,10 24,8 36,16 48,14 60,20"/>
  </svg>

  <!-- ═══════════════════════════ D. 추천 전용 ═══════════════════════════ -->
  <text x="32" y="870" class="sec">D. 추천(Recommend) 전용</text>

  <!-- RecommendStockRow -->
  <rect x="32"  y="880" width="460" height="180" rx="10" class="cb"/>
  <rect x="32"  y="880" width="460" height="36"  rx="10" class="ch"/>
  <rect x="32"  y="904" width="460" height="12"  class="ch"/>
  <text x="48"  y="903" class="cname">RecommendStockRow</text>
  <rect x="452" y="883" width="24" height="14" rx="3" class="nb"/><text x="456" y="893" class="nbt">NEW</text>
  <text x="48"  y="931" class="cfile">components/RecommendStockRow.tsx</text>
  <line x1="48" y1="938" x2="476" y2="938" class="dv"/>
  <text x="48" y="951" class="cdesc">추천 종목 한 행. 이름·티커·AI배지·등락·강도·이유·전략 포함.</text>
  <text x="48" y="964" class="pk">item: RecommendItem</text>
  <!-- 미리보기 행 -->
  <rect x="48" y="974" width="428" height="70" rx="6" fill="#f9f9f9" stroke="#e4e4e7" stroke-width="1"/>
  <text x="60" y="990" font-size="8" fill="#a1a1aa">└</text>
  <text x="72" y="990" font-size="11" font-weight="600" fill="#3f3f46">삼성전자</text>
  <text x="136" y="990" font-size="9" fill="#a1a1aa">005930</text>
  <rect x="176" y="982" width="28" height="13" rx="3" fill="#dbeafe" stroke="#93c5fd" stroke-width="1"/>
  <text x="183" y="991" font-size="7" fill="#1e40af">보유중</text>
  <rect x="212" y="982" width="24" height="13" rx="3" fill="#fef3c7" stroke="#fde68a" stroke-width="1"/>
  <text x="218" y="991" font-size="7" fill="#92400e">AI·아침</text>
  <text x="380" y="990" font-size="10" font-weight="600" fill="#3f3f46">58,400원</text>
  <text x="432" y="990" font-size="10" fill="#f0507a">+1.23%</text>
  <text x="60" y="1006" font-size="8" fill="#71717a">AI 분석: 메모리 반도체 업황 개선 + 수출 회복세로 단기 상승 기대</text>
  <text x="60" y="1020" font-size="8" fill="#a1a1aa">진입 55,000~57,000원  목표 63,000원 (+8%)  손절 54,000원 (-5%)</text>
  <text x="60" y="1034" font-size="8" fill="#a1a1aa" font-style="italic">RSI 45, MACD 매수 신호</text>

  <!-- WeightBadge -->
  <rect x="508" y="880" width="230" height="180" rx="10" class="cb"/>
  <rect x="508" y="880" width="230" height="36"  rx="10" class="ch"/>
  <rect x="508" y="904" width="230" height="12"  class="ch"/>
  <text x="524" y="903" class="cname">WeightBadge</text>
  <rect x="700" y="883" width="24" height="14" rx="3" class="nb"/><text x="704" y="893" class="nbt">NEW</text>
  <text x="524" y="931" class="cfile">components/WeightBadge.tsx</text>
  <line x1="524" y1="938" x2="722" y2="938" class="dv"/>
  <text x="524" y="951" class="cdesc">섹터 투자 비중 상태 배지.</text>
  <text x="524" y="966" class="pk">weight: number</text>
  <rect x="524" y="978" width="52" height="20" rx="4" fill="#fee2e2" stroke="#fca5a5" stroke-width="1"/>
  <text x="543" y="991" text-anchor="middle" font-size="9" fill="#991b1b">미투자</text>
  <rect x="584" y="978" width="82" height="20" rx="4" fill="rgb(26 158 255 / 0.06)" stroke="rgb(26 158 255 / 0.18)" stroke-width="1"/>
  <text x="625" y="991" text-anchor="middle" font-size="9" fill="#1a9eff">저비중 (4.2%)</text>
  <rect x="524" y="1006" width="78" height="20" rx="4" fill="rgb(26 158 255 / 0.06)" stroke="rgb(26 158 255 / 0.3)" stroke-width="1"/>
  <text x="563" y="1019" text-anchor="middle" font-size="9" fill="#1a9eff">적정 (18.5%)</text>

  <!-- HoldingStackBar -->
  <rect x="754" y="880" width="274" height="180" rx="10" class="cb"/>
  <rect x="754" y="880" width="274" height="36"  rx="10" class="ch"/>
  <rect x="754" y="904" width="274" height="12"  class="ch"/>
  <text x="770" y="903" class="cname">HoldingStackBar</text>
  <rect x="988" y="883" width="24" height="14" rx="3" class="nb"/><text x="992" y="893" class="nbt">NEW</text>
  <text x="770" y="931" class="cfile">components/HoldingStackBar.tsx</text>
  <line x1="770" y1="938" x2="1012" y2="938" class="dv"/>
  <text x="770" y="951" class="cdesc">보유 종목 비중 스택 바.</text>
  <text x="770" y="966" class="pk">items: RecommendItem[]</text>
  <text x="770" y="979" class="pk">portfolioValues: Map&lt;string,number&gt;</text>
  <!-- 미리보기 스택 바 -->
  <text x="770" y="998" font-size="9" fill="#a1a1aa">보유 종목</text>
  <rect x="770" y="1002" width="220" height="20" rx="3" fill="#e4e4e7"/>
  <rect x="770" y="1002" width="100" height="20" rx="3" fill="#1a9eff"/>
  <rect x="870" y="1002" width="72" height="20" fill="#a78bfa"/>
  <rect x="942" y="1002" width="48" height="20" rx="3" fill="#34d399"/>
  <text x="804" y="1015" font-size="8" fill="white">삼성전자</text>
  <text x="876" y="1015" font-size="8" fill="white">SK하이닉스</text>
  <text x="944" y="1015" font-size="8" fill="white" font-size="7">LG에너지</text>

  <!-- ═══════════════════════════ E. 포트폴리오 전용 ═══════════════════════════ -->
  <text x="32" y="1094" class="sec">E. 포트폴리오(Portfolio) 전용</text>

  <!-- WeightBar -->
  <rect x="32"  y="1104" width="490" height="160" rx="10" class="cb"/>
  <rect x="32"  y="1104" width="490" height="36"  rx="10" class="ch"/>
  <rect x="32"  y="1128" width="490" height="12"  class="ch"/>
  <text x="48"  y="1127" class="cname">WeightBar</text>
  <rect x="484" y="1107" width="24" height="14" rx="3" class="nb"/><text x="488" y="1117" class="nbt">NEW</text>
  <text x="48"  y="1155" class="cfile">components/WeightBar.tsx</text>
  <line x1="48" y1="1162" x2="506" y2="1162" class="dv"/>
  <text x="48" y="1175" class="cdesc">보유 종목 Top5 비중 가로 바 + 범례.</text>
  <text x="48" y="1190" class="pk">holdings: PortfolioItem[]</text>
  <rect x="48" y="1204" width="460" height="10" rx="5" fill="#e4e4e7" overflow="hidden"/>
  <rect x="48" y="1204" width="190" height="10" rx="5" fill="#1a9eff"/>
  <rect x="238" y="1204" width="100" height="10" fill="#f0507a"/>
  <rect x="338" y="1204" width="76" height="10" fill="#a78bfa"/>
  <rect x="414" y="1204" width="50" height="10" fill="#34d399"/>
  <rect x="464" y="1204" width="44" height="10" rx="5" fill="#fbbf24"/>
  <text x="48" y="1228" font-size="9" fill="#a1a1aa">● 삼성전자 41%  ● 카카오 22%  ● SK하이닉스 17%  ● 기타</text>

  <!-- HoldingDrawer -->
  <rect x="538" y="1104" width="490" height="160" rx="10" class="cb"/>
  <rect x="538" y="1104" width="490" height="36"  rx="10" class="ch"/>
  <rect x="538" y="1128" width="490" height="12"  class="ch"/>
  <text x="554" y="1127" class="cname">HoldingDrawer</text>
  <rect x="990" y="1107" width="24" height="14" rx="3" class="nb"/><text x="994" y="1117" class="nbt">NEW</text>
  <text x="554" y="1155" class="cfile">components/HoldingDrawer.tsx</text>
  <line x1="554" y1="1162" x2="1012" y2="1162" class="dv"/>
  <text x="554" y="1175" class="cdesc">종목 클릭 시 우측 슬라이딩 드로어.</text>
  <text x="554" y="1188" class="cdesc">차트 탭 · 추가매수 계산기 탭 · 관련 뉴스 · 외부 링크.</text>
  <text x="554" y="1203" class="pk">holding: PortfolioItem  onClose: fn  accounts: Account[]</text>
  <!-- 미리보기 드로어 outline -->
  <rect x="554" y="1213" width="90" height="42" rx="4" fill="#f9f9f9" stroke="#e4e4e7" stroke-width="1"/>
  <text x="560" y="1225" font-size="8" font-weight="700" fill="#3f3f46">삼성전자</text>
  <text x="560" y="1236" font-size="7" fill="#a1a1aa">005930 · KOSPI</text>
  <text x="560" y="1248" font-size="8" fill="#f0507a">+1,250,000원</text>
  <rect x="656" y="1213" width="36" height="16" rx="3" fill="rgb(26 158 255 / 0.1)" stroke="rgb(26 158 255 / 0.3)" stroke-width="1"/>
  <text x="669" y="1224" text-anchor="middle" font-size="8" fill="#1a9eff">차트</text>
  <rect x="698" y="1213" width="60" height="16" rx="3" fill="#f4f4f5" stroke="#e4e4e7" stroke-width="1"/>
  <text x="728" y="1224" text-anchor="middle" font-size="8" fill="#71717a">추가매수</text>

  <!-- ═══════════════════════════ F. 시장 정보 ═══════════════════════════ -->
  <text x="32" y="1294" class="sec">F. 시장 정보 패널</text>

  <!-- IndexPanel -->
  <rect x="32"  y="1304" width="490" height="130" rx="10" class="cb"/>
  <rect x="32"  y="1304" width="490" height="36"  rx="10" class="ch"/>
  <rect x="32"  y="1328" width="490" height="12"  class="ch"/>
  <text x="48"  y="1327" class="cname">IndexPanel</text>
  <rect x="484" y="1307" width="28" height="14" rx="3" class="ob"/><text x="489" y="1317" class="obt">기존</text>
  <text x="48"  y="1355" class="cfile">components/IndexPanel.tsx</text>
  <line x1="48" y1="1362" x2="506" y2="1362" class="dv"/>
  <text x="48" y="1375" class="cdesc">글로벌 지수 카드 + 미니 스파크라인. CollapsibleCard 래핑.</text>
  <text x="48" y="1390" class="cdesc">props 없음 — API 직접 호출. Portfolio 상단.</text>
  <rect x="48" y="1402" width="440" height="22" rx="4" fill="#f9f9f9" stroke="#e4e4e7" stroke-width="1"/>
  <text x="60" y="1416" font-size="9" font-weight="600" fill="#3f3f46">KOSPI</text>
  <text x="98" y="1416" font-size="9" fill="#3f3f46">2,438.12</text>
  <text x="154" y="1416" font-size="9" fill="#f0507a">+0.52%</text>
  <text x="204" y="1416" font-size="9" font-weight="600" fill="#3f3f46">NASDAQ</text>
  <text x="256" y="1416" font-size="9" fill="#3f3f46">17,850.3</text>
  <text x="316" y="1416" font-size="9" fill="#3b82f6">-0.18%</text>

  <!-- IndexBar -->
  <rect x="538" y="1304" width="490" height="130" rx="10" class="cb"/>
  <rect x="538" y="1304" width="490" height="36"  rx="10" class="ch"/>
  <rect x="538" y="1328" width="490" height="12"  class="ch"/>
  <text x="554" y="1327" class="cname">IndexBar</text>
  <rect x="990" y="1307" width="28" height="14" rx="3" class="ob"/><text x="995" y="1317" class="obt">기존</text>
  <text x="554" y="1355" class="cfile">components/IndexBar.tsx</text>
  <line x1="554" y1="1362" x2="1012" y2="1362" class="dv"/>
  <text x="554" y="1375" class="cdesc">앱 최상단 가로 스크롤 지수 바. 5분마다 자동 갱신.</text>
  <text x="554" y="1390" class="cdesc">props 없음 — API 직접 호출.</text>
  <rect x="554" y="1402" width="440" height="22" rx="4" fill="#f9f9f9" stroke="#e4e4e7" stroke-width="1"/>
  <text x="566" y="1412" font-size="8" fill="#71717a">KOSPI</text>
  <text x="566" y="1421" font-size="8" fill="#f0507a">+0.5%</text>
  <text x="628" y="1412" font-size="8" fill="#71717a">KOSDAQ</text>
  <text x="628" y="1421" font-size="8" fill="#3b82f6">-0.3%</text>
  <text x="700" y="1412" font-size="8" fill="#71717a">NASDAQ</text>
  <text x="700" y="1421" font-size="8" fill="#f0507a">+1.1%</text>
  <text x="772" y="1416" font-size="9" fill="#a1a1aa">···</text>

  <!-- ═══════════════════════════ G. 상태·피드백 ═══════════════════════════ -->
  <text x="32" y="1462" class="sec">G. 상태 · 피드백</text>

  <!-- LoadingSpinner / ErrorMessage -->
  <rect x="32"  y="1472" width="310" height="150" rx="10" class="cb"/>
  <rect x="32"  y="1472" width="310" height="36"  rx="10" class="ch"/>
  <rect x="32"  y="1496" width="310" height="12"  class="ch"/>
  <text x="48"  y="1495" class="cname">LoadingSpinner · ErrorMessage</text>
  <rect x="304" y="1475" width="28" height="14" rx="3" class="ob"/><text x="309" y="1485" class="obt">기존</text>
  <text x="48"  y="1523" class="cfile">components/LoadingError.tsx</text>
  <line x1="48" y1="1530" x2="326" y2="1530" class="dv"/>
  <text x="48" y="1543" class="cdesc">LoadingSpinner: 회전 스피너+라벨.</text>
  <text x="48" y="1556" class="cdesc">ErrorMessage: 오류 아이콘+재시도 버튼.</text>
  <text x="48" y="1571" class="pk">size?  label?  /  message?  onRetry?</text>
  <circle cx="96" cy="1602" r="12" fill="none" stroke="#e4e4e7" stroke-width="3"/>
  <circle cx="96" cy="1602" r="12" fill="none" stroke="#1a9eff" stroke-width="3" stroke-dasharray="20 57"/>
  <text x="116" y="1606" font-size="10" fill="#a1a1aa">로딩 중…</text>

  <!-- OcrUploadModal -->
  <rect x="358" y="1472" width="310" height="150" rx="10" class="cb"/>
  <rect x="358" y="1472" width="310" height="36"  rx="10" class="ch"/>
  <rect x="358" y="1496" width="310" height="12"  class="ch"/>
  <text x="374" y="1495" class="cname">OcrUploadModal</text>
  <rect x="630" y="1475" width="28" height="14" rx="3" class="ob"/><text x="635" y="1485" class="obt">기존</text>
  <text x="374" y="1523" class="cfile">components/OcrUploadModal.tsx</text>
  <line x1="374" y1="1530" x2="652" y2="1530" class="dv"/>
  <text x="374" y="1543" class="cdesc">이미지 업로드 → OCR 종목 자동 인식.</text>
  <text x="374" y="1556" class="cdesc">Portfolio 페이지에서만 사용.</text>
  <text x="374" y="1571" class="pk">onClose: fn  onImport: fn(items)</text>

  <!-- PlannerChat / SortableItem -->
  <rect x="684" y="1472" width="344" height="150" rx="10" class="cb"/>
  <rect x="684" y="1472" width="344" height="36"  rx="10" class="ch"/>
  <rect x="684" y="1496" width="344" height="12"  class="ch"/>
  <text x="700" y="1495" class="cname">PlannerChat · SortableItem</text>
  <rect x="990" y="1475" width="28" height="14" rx="3" class="ob"/><text x="995" y="1485" class="obt">기존</text>
  <text x="700" y="1523" class="cfile">components/PlannerChat.tsx  ·  SortableItem.tsx</text>
  <line x1="700" y1="1530" x2="1012" y2="1530" class="dv"/>
  <text x="700" y="1543" class="cdesc">PlannerChat: Gemini AI 챗봇. Planner 전용.</text>
  <text x="700" y="1558" class="cdesc">SortableItem: DnD 드래그 래퍼 (Home·Portfolio 공용).</text>
  <text x="700" y="1573" class="pk">PlannerChat: context  model?</text>
  <text x="700" y="1586" class="pk">SortableItem: id  order?  children(dragHandle)</text>

  <!-- ═══════════════════════════ H. 유틸리티 ═══════════════════════════ -->
  <text x="32" y="1650" class="sec">H. 유틸리티 함수 (utils/ · constants/)</text>

  <!-- format.ts -->
  <rect x="32"  y="1660" width="240" height="168" rx="10" class="cb"/>
  <rect x="32"  y="1660" width="240" height="36"  rx="10" class="ch"/>
  <rect x="32"  y="1684" width="240" height="12"  class="ch"/>
  <text x="48"  y="1683" class="cname">format.ts</text>
  <rect x="234" y="1663" width="24" height="14" rx="3" class="nb"/><text x="238" y="1673" class="nbt">NEW</text>
  <text x="48"  y="1711" class="cfile">utils/format.ts</text>
  <line x1="48" y1="1718" x2="256" y2="1718" class="dv"/>
  <text x="48" y="1731" class="pk">formatPrice(n, currency?)</text>
  <text x="48" y="1744" font-size="9" fill="#a1a1aa">  1250000 → "1,250,000원"</text>
  <text x="48" y="1759" class="pk">formatPct(n)</text>
  <text x="48" y="1772" font-size="9" fill="#a1a1aa">  3.5 → "+3.50%"</text>
  <text x="48" y="1787" class="pk">relativeTime(dateStr)</text>
  <text x="48" y="1800" font-size="9" fill="#a1a1aa">  → "3분 전" / "방금"</text>
  <text x="48" y="1815" font-size="9" fill="#a1a1aa">  → "2시간 전" / "1일 전"</text>

  <!-- chart.ts -->
  <rect x="288" y="1660" width="240" height="168" rx="10" class="cb"/>
  <rect x="288" y="1660" width="240" height="36"  rx="10" class="ch"/>
  <rect x="288" y="1684" width="240" height="12"  class="ch"/>
  <text x="304" y="1683" class="cname">chart.ts</text>
  <rect x="490" y="1663" width="24" height="14" rx="3" class="nb"/><text x="494" y="1673" class="nbt">NEW</text>
  <text x="304" y="1711" class="cfile">utils/chart.ts</text>
  <line x1="304" y1="1718" x2="512" y2="1718" class="dv"/>
  <text x="304" y="1731" class="pk">getChartColors()</text>
  <text x="304" y="1744" font-size="9" fill="#a1a1aa">  CSS --c-up / --c-down 읽기</text>
  <text x="304" y="1759" font-size="9" fill="#a1a1aa">  → &#123; up: string, down: string &#125;</text>
  <text x="304" y="1774" class="pk">CHART_TOOLTIP_STYLE</text>
  <text x="304" y="1787" font-size="9" fill="#a1a1aa">  Recharts 툴팁 공통 스타일</text>

  <!-- theme.ts -->
  <rect x="544" y="1660" width="240" height="168" rx="10" class="cb"/>
  <rect x="544" y="1660" width="240" height="36"  rx="10" class="ch"/>
  <rect x="544" y="1684" width="240" height="12"  class="ch"/>
  <text x="560" y="1683" class="cname">theme.ts</text>
  <rect x="746" y="1663" width="28" height="14" rx="3" class="ob"/><text x="751" y="1673" class="obt">기존</text>
  <text x="560" y="1711" class="cfile">utils/theme.ts</text>
  <line x1="560" y1="1718" x2="768" y2="1718" class="dv"/>
  <text x="560" y="1731" class="pk">getTonalPalette()</text>
  <text x="560" y="1744" font-size="9" fill="#a1a1aa">  --c-accent-rgb 읽어 opacity</text>
  <text x="560" y="1757" font-size="9" fill="#a1a1aa">  계단 색상 배열 반환.</text>
  <text x="560" y="1770" font-size="9" fill="#a1a1aa">  도넛·바·스택 차트 색상 공통.</text>

  <!-- constants/stock.ts -->
  <rect x="800" y="1660" width="228" height="168" rx="10" class="cb"/>
  <rect x="800" y="1660" width="228" height="36"  rx="10" class="ch"/>
  <rect x="800" y="1684" width="228" height="12"  class="ch"/>
  <text x="816" y="1683" class="cname">stock.ts (constants/)</text>
  <rect x="992" y="1663" width="24" height="14" rx="3" class="nb"/><text x="996" y="1673" class="nbt">NEW</text>
  <text x="816" y="1711" class="cfile">constants/stock.ts</text>
  <line x1="816" y1="1718" x2="1012" y2="1718" class="dv"/>
  <text x="816" y="1731" class="pk">STRENGTH_CONFIG</text>
  <text x="816" y="1744" font-size="9" fill="#a1a1aa">  strong / normal / watch</text>
  <text x="816" y="1757" font-size="9" fill="#a1a1aa">  → label, stars, cls(색상)</text>
  <text x="816" y="1772" class="pk">StrengthKey  (타입)</text>

  <!-- ═══════════════════════════ 범례 ═══════════════════════════ -->
  <rect x="32" y="1856" width="996" height="2" rx="1" fill="#e4e4e7"/>
  <rect x="32" y="1868" width="24" height="14" rx="3" class="nb"/><text x="60" y="1878" font-size="10" fill="#71717a">NEW — 이번 세션(04-09 ~ 04-14)에서 새로 생성한 파일</text>
  <rect x="380" y="1868" width="28" height="14" rx="3" class="ob"/><text x="412" y="1878" font-size="10" fill="#71717a">기존 — 이전부터 있던 파일</text>
  <text x="600" y="1878" font-size="10" fill="#a1a1aa">props 뒤 ? 는 선택 항목 (없어도 됨)</text>
  <text x="32" y="1900" font-size="10" fill="#a1a1aa">총 컴포넌트: 24개 (NEW 17 · 기존 7)   /   유틸: 4개 (NEW 3 · 기존 1)   /   상수: 1개 (NEW 1)</text>
</svg>
