<svg xmlns="http://www.w3.org/2000/svg" fill="none" viewBox="0 0 128 128"><g id="snow__snow" clip-path="url(#snow__clip0_2045_39686)"><g id="snow__Sky"><g id="snow__Clouds"><g id="snow__Cloud"><path id="snow__Cloud_2" fill="#e6effc" d="M90.389 63.086c2.295-9.204-2.648-18.95-11.38-22.604-8.744-3.658-19.181-.344-24.172 7.73-4.3-2.587-9.862-2.434-14.013.387-4.14 2.814-6.324 7.915-5.474 12.855-6.957 1.315-11.957 7.885-11.289 14.954S30.871 89.002 37.953 89h53.024C98.045 89 104 83.119 104 76.028c0-7.327-6.323-13.26-13.611-12.942"/></g><animateTransform attributeName="transform" begin="0s" calcMode="spline" dur="3s" keySplines=".42 0 .58 1; .42 0 .58 1" repeatCount="indefinite" type="translate" values="0 0;0 -3;0 0"/></g></g><g id="snow__Precipitation"><g id="snow__Snowflakes"><path id="snow__Snowflake 1" fill="#86c3db" d="m52.578 90.366-1.205-.689a2.9 2.9 0 0 0-.002-1.353l1.207-.69a.83.83 0 0 0 .309-1.141.85.85 0 0 0-1.153-.306l-1.206.69a2.9 2.9 0 0 0-1.184-.677v-1.38A.85.85 0 0 0 48.5 84a.843.843 0 0 0-.844.82v1.38a2.96 2.96 0 0 0-1.185.674l-1.205-.689a.848.848 0 0 0-1.259.616.83.83 0 0 0 .415.832l1.204.689c-.106.445-.105.909.003 1.353l-1.207.69a.83.83 0 0 0-.415.832.83.83 0 0 0 .62.7.85.85 0 0 0 .64-.084l1.205-.69c.334.318.74.55 1.184.675v1.382a.85.85 0 0 0 .844.82.843.843 0 0 0 .844-.82v-1.383c.441-.129.847-.36 1.184-.673l1.206.69a.847.847 0 0 0 1.259-.616.83.83 0 0 0-.415-.832m-4.712-.28a1.24 1.24 0 0 1-.622-1.25 1.25 1.25 0 0 1 .93-1.048 1.27 1.27 0 0 1 1.329.445 1.25 1.25 0 0 1 .093 1.393 1.28 1.28 0 0 1-1.73.46"><animateTransform attributeName="transform" begin="-0.8s" calcMode="spline" dur="1s" keySplines=".42 0 1 1" repeatCount="indefinite" type="translate" values="0 0;0 20"/><animate attributeName="opacity" begin="-0.8s" dur="1s" keyTimes="0;0.15;0.85;1" repeatCount="indefinite" values="0;1;1;0"/></path><path id="snow__Snowflake 2" fill="#86c3db" d="m67.578 90.366-1.204-.689a2.9 2.9 0 0 0-.003-1.353l1.207-.69a.83.83 0 0 0 .309-1.141.85.85 0 0 0-1.153-.306l-1.206.69a2.9 2.9 0 0 0-1.184-.677v-1.38A.85.85 0 0 0 63.5 84a.843.843 0 0 0-.844.82v1.38a2.96 2.96 0 0 0-1.185.674l-1.205-.689a.848.848 0 0 0-1.259.616.83.83 0 0 0 .415.832l1.204.689c-.106.445-.105.909.003 1.353l-1.207.69a.83.83 0 0 0-.415.832.83.83 0 0 0 .62.7.85.85 0 0 0 .64-.084l1.205-.69c.334.318.74.55 1.184.675v1.382a.85.85 0 0 0 .844.82.843.843 0 0 0 .844-.82v-1.383c.441-.129.847-.36 1.184-.673l1.206.69a.847.847 0 0 0 1.259-.616.83.83 0 0 0-.415-.832m-4.712-.28a1.24 1.24 0 0 1-.622-1.25 1.25 1.25 0 0 1 .93-1.048 1.27 1.27 0 0 1 1.329.445 1.25 1.25 0 0 1 .093 1.393 1.28 1.28 0 0 1-1.73.46"><animateTransform attributeName="transform" begin="-0.30000000000000004s" calcMode="spline" dur="1s" keySplines=".42 0 1 1" repeatCount="indefinite" type="translate" values="0 0;0 20"/><animate attributeName="opacity" begin="-0.30000000000000004s" dur="1s" keyTimes="0;0.15;0.85;1" repeatCount="indefinite" values="0;1;1;0"/></path><path id="snow__Snowflake 3" fill="#86c3db" d="m82.578 90.366-1.204-.689a2.9 2.9 0 0 0-.003-1.353l1.207-.69a.83.83 0 0 0 .309-1.141.85.85 0 0 0-1.153-.306l-1.206.69a2.9 2.9 0 0 0-1.184-.677v-1.38A.85.85 0 0 0 78.5 84a.843.843 0 0 0-.844.82v1.38a2.96 2.96 0 0 0-1.185.674l-1.205-.689a.848.848 0 0 0-1.259.616.83.83 0 0 0 .415.832l1.204.689c-.106.445-.105.909.003 1.353l-1.207.69a.83.83 0 0 0-.415.832.83.83 0 0 0 .62.7.85.85 0 0 0 .64-.084l1.205-.69c.334.318.74.55 1.184.675v1.382a.85.85 0 0 0 .844.82.843.843 0 0 0 .844-.82v-1.383c.441-.129.847-.36 1.184-.673l1.206.69a.847.847 0 0 0 1.259-.616.83.83 0 0 0-.415-.832m-4.712-.28a1.24 1.24 0 0 1-.622-1.25 1.25 1.25 0 0 1 .93-1.048 1.27 1.27 0 0 1 1.329.445 1.25 1.25 0 0 1 .093 1.393 1.28 1.28 0 0 1-1.73.46"><animateTransform attributeName="transform" begin="-0.8s" calcMode="spline" dur="1s" keySplines=".42 0 1 1" repeatCount="indefinite" type="translate" values="0 0;0 20"/><animate attributeName="opacity" begin="-0.8s" dur="1s" keyTimes="0;0.15;0.85;1" repeatCount="indefinite" values="0;1;1;0"/></path></g></g></g><defs><clipPath id="snow__clip0_2045_39686"><rect width="128" height="128" fill="#fff"/></clipPath></defs></svg>